<?xml version="1.0" standalone="no"?>
<!DOCTYPE svg PUBLIC "-//W3C//DTD SVG 20010904//EN"
 "http://www.w3.org/TR/2001/REC-SVG-20010904/DTD/svg10.dtd">
<svg version="1.0" xmlns="http://www.w3.org/2000/svg"
 width="500.000000pt" height="500.000000pt" viewBox="0 0 500.000000 500.000000"
 preserveAspectRatio="xMidYMid meet">

<g transform="translate(0.000000,500.000000) scale(0.100000,-0.100000)"
fill="#000000" stroke="none">
<path d="M440 3151 c-143 -47 -228 -159 -249 -328 -24 -192 45 -352 208 -486
32 -26 33 -30 26 -75 -3 -26 -20 -98 -36 -160 -17 -63 -28 -116 -25 -119 3 -3
58 5 123 18 95 19 150 24 283 24 178 0 246 -10 394 -56 109 -34 100 -22 -24
31 -183 80 -412 115 -584 91 -44 -6 -81 -10 -83 -8 -1 2 0 24 3 49 l6 46 77
11 c263 36 425 17 621 -75 52 -24 84 -35 70 -24 -51 41 -208 111 -305 136 -87
22 -121 26 -256 26 -86 0 -166 -3 -178 -7 -20 -6 -21 -3 -21 47 0 76 -26 233
-49 303 -15 44 -19 50 -16 25 2 -19 7 -78 10 -130 l6 -95 -45 48 c-25 27 -60
78 -78 115 -32 64 -33 71 -33 182 1 126 15 172 70 238 59 71 180 103 289 77
63 -14 152 -54 206 -92 l25 -18 -24 33 c-32 46 -109 105 -186 143 -68 33 -173
47 -225 30z"/>
<path d="M1400 3039 c-87 -15 -201 -56 -317 -116 -308 -158 -388 -164 -535
-41 -55 45 -60 34 -18 -38 38 -67 91 -111 159 -131 97 -28 204 -2 441 107 167
77 245 100 360 107 164 10 261 -37 311 -149 19 -44 23 -70 23 -158 1 -95 -2
-111 -27 -161 -15 -31 -50 -78 -77 -103 -53 -49 -154 -103 -211 -112 l-34 -6
3 50 c5 61 -24 132 -62 157 -41 27 -137 29 -301 6 -251 -35 -355 -26 -498 45
-64 31 -69 33 -42 10 43 -37 122 -81 178 -100 99 -33 180 -39 375 -26 101 6
199 9 217 6 54 -11 69 -55 70 -211 0 -71 -3 -166 -7 -210 l-7 -80 23 95 c13
52 26 111 30 131 6 35 7 36 82 52 148 32 288 127 347 236 53 97 70 241 42 359
-19 80 -36 113 -88 169 -93 101 -252 142 -437 112z"/>
<path d="M3158 2930 c-78 -23 -138 -89 -138 -151 0 -26 -3 -30 -12 -21 -17 17
-59 15 -86 -4 -20 -14 -22 -14 -22 0 0 12 -11 16 -45 16 -25 0 -45 -2 -45 -3
0 -24 -53 -233 -61 -243 -6 -8 -22 -14 -35 -14 -30 0 -30 13 0 153 l23 107
-48 0 c-33 0 -49 -4 -49 -12 0 -9 -3 -9 -8 -2 -26 38 -107 20 -152 -34 -62
-74 -78 -215 -30 -254 33 -27 88 -23 120 7 l27 26 17 -26 c13 -19 25 -25 54
-25 21 0 48 8 62 17 22 16 23 16 17 0 -5 -15 1 -17 42 -17 l48 0 22 113 c13
61 29 122 37 135 18 27 44 29 51 2 8 -30 49 -26 66 6 12 23 15 24 26 10 8 -9
21 -16 31 -16 14 0 16 7 12 48 -5 56 14 103 54 128 13 9 26 15 28 13 2 -2 -17
-101 -43 -219 l-48 -215 25 -3 c13 -2 28 0 32 5 4 4 23 75 41 157 22 101 35
143 41 130 4 -11 21 -81 39 -156 l31 -138 44 0 c37 0 44 3 49 23 22 90 95 432
95 443 0 9 -11 14 -29 14 l-28 0 -34 -165 c-18 -90 -37 -161 -40 -157 -4 4
-21 75 -39 157 -20 93 -38 155 -48 163 -18 13 -53 14 -94 2z m-528 -217 c0
-31 -33 -159 -46 -180 -8 -13 -23 -23 -34 -23 -58 0 -33 169 31 214 24 16 49
11 49 -11z"/>
<path d="M4214 2927 c-2 -7 -13 -41 -23 -75 l-19 -62 22 0 c17 0 29 15 54 65
18 36 32 70 32 75 0 15 -60 12 -66 -3z"/>
<path d="M2125 2906 c-104 -48 -152 -159 -85 -193 25 -12 25 -12 30 40 3 28
11 62 18 74 11 20 62 66 68 61 1 -2 -18 -93 -42 -203 -24 -110 -43 -208 -44
-217 0 -15 9 -18 44 -18 l43 0 17 83 c35 166 31 157 81 157 30 0 45 -4 45 -12
-1 -7 -11 -61 -24 -120 l-24 -108 48 0 47 0 22 108 c12 59 34 167 50 240 l29
132 -47 0 -47 0 -19 -92 -20 -93 -47 -3 c-27 -2 -48 1 -48 5 0 7 9 46 35 161
5 20 2 22 -37 22 -24 0 -66 -11 -93 -24z"/>
<path d="M3878 2893 c-19 -3 -28 -11 -32 -31 -40 -194 -69 -310 -81 -329 -15
-23 -49 -31 -59 -14 -4 5 5 61 19 125 14 64 25 118 25 121 0 3 -20 5 -45 5
-25 0 -45 -5 -45 -10 0 -6 -11 -3 -24 5 -33 22 -92 6 -133 -37 -65 -67 -88
-205 -43 -253 32 -34 88 -34 128 0 l29 24 11 -24 c9 -20 19 -25 47 -25 20 0
46 5 58 11 16 9 22 9 25 0 2 -6 23 -11 48 -11 37 0 44 3 49 23 3 12 11 49 18
82 12 51 18 61 41 70 31 10 50 -7 40 -37 -13 -41 -8 -97 10 -117 43 -47 136
-13 166 59 15 36 4 54 -15 25 -26 -37 -36 -45 -56 -45 -20 0 -21 4 -14 60 7
64 -9 110 -40 110 -33 0 -22 21 27 55 l53 35 -33 0 c-23 0 -48 -13 -89 -45
-31 -24 -58 -43 -59 -42 -2 1 7 51 20 110 l22 107 -20 -1 c-12 -1 -33 -4 -48
-6z m-240 -165 c14 -18 -21 -173 -44 -199 -10 -11 -27 -19 -38 -17 -19 3 -21
10 -20 63 1 100 66 196 102 153z"/>
<path d="M4362 2782 c-17 -5 -31 -27 -56 -90 -19 -46 -44 -94 -56 -107 -29
-31 -29 -79 0 -110 19 -20 33 -25 71 -25 38 0 58 7 107 40 63 42 89 67 79 76
-3 3 -16 -2 -30 -10 l-24 -16 -6 52 c-4 29 -7 76 -7 103 0 93 -11 105 -78 87z
m-12 -188 c0 -80 -11 -98 -57 -92 -17 2 -29 10 -31 21 -2 10 0 17 5 16 26 -4
34 3 31 29 -4 33 33 126 44 109 4 -7 8 -44 8 -83z"/>
<path d="M3175 2240 c3 -5 8 -10 11 -10 2 0 4 5 4 10 0 6 -5 10 -11 10 -5 0
-7 -4 -4 -10z"/>
<path d="M2636 2195 c-21 -21 -21 -59 0 -80 20 -19 65 -16 72 5 5 13 3 13 -11
2 -19 -16 -53 -8 -61 15 -16 40 29 78 61 51 14 -11 16 -11 11 2 -7 21 -52 24
-72 5z"/>
<path d="M2782 2169 c-2 -55 11 -69 61 -67 l37 1 0 54 c0 29 -4 53 -10 53 -5
0 -10 -17 -10 -39 0 -80 -60 -80 -71 0 l-6 44 -1 -46z"/>
<path d="M2950 2155 c0 -30 5 -55 10 -55 6 0 10 25 10 55 0 30 -4 55 -10 55
-5 0 -10 -25 -10 -55z"/>
<path d="M3043 2203 c-27 -10 -13 -41 23 -53 43 -14 39 -36 -6 -33 -21 1 -29
-2 -22 -9 5 -5 22 -8 38 -6 23 2 29 8 29 28 0 17 -7 26 -25 30 -35 8 -33 36 3
33 15 -1 25 2 22 8 -6 9 -41 11 -62 2z"/>
<path d="M3183 2155 c0 -33 2 -45 4 -27 2 18 2 45 0 60 -2 15 -4 0 -4 -33z"/>
<path d="M3260 2153 c0 -29 5 -53 10 -53 6 0 10 17 10 39 0 80 60 80 71 0 l6
-44 1 46 c2 55 -11 69 -61 67 l-37 -1 0 -54z"/>
<path d="M3446 2194 c-34 -34 -9 -94 39 -94 13 0 27 5 30 10 4 7 -2 9 -18 5
-16 -4 -30 -1 -42 12 -18 17 -17 18 28 21 39 3 47 7 47 22 0 36 -57 52 -84 24z
m64 -9 c18 -21 9 -27 -36 -23 -36 3 -37 4 -20 21 21 21 40 22 56 2z"/>
</g>
</svg>
